<mxfile host="app.diagrams.net" modified="2024-01-25T21:27:30.208Z" agent="Mozilla/5.0 (Windows NT 10.0; Win64; x64) AppleWebKit/537.36 (KHTML, like Gecko) Chrome/120.0.0.0 Safari/537.36" etag="DcgqvO-kJEIFpEURNnNG" version="23.0.2" type="github">
  <diagram id="prtHgNgQTEPvFCAcTncT" name="Page-1">
    <mxGraphModel dx="2227" dy="773" grid="1" gridSize="10" guides="1" tooltips="1" connect="1" arrows="1" fold="1" page="1" pageScale="1" pageWidth="827" pageHeight="1169" math="0" shadow="0">
      <root>
        <mxCell id="0" />
        <mxCell id="1" parent="0" />
        <mxCell id="dNxyNK7c78bLwvsdeMH5-11" value="&lt;font style=&quot;font-size: 26px;&quot;&gt;YAY BUTTON SYSTEM&lt;/font&gt;" style="swimlane;html=1;startSize=40;horizontal=1;containerType=tree;glass=0;" parent="1" vertex="1">
          <mxGeometry x="-20" y="110" width="1070" height="480" as="geometry">
            <mxRectangle x="40" y="80" width="170" height="30" as="alternateBounds" />
          </mxGeometry>
        </mxCell>
        <mxCell id="etbVKzwoMp407Bzuv7Fr-43" style="edgeStyle=none;curved=1;rounded=0;orthogonalLoop=1;jettySize=auto;html=1;entryX=0.5;entryY=0;entryDx=0;entryDy=0;fontSize=12;startSize=8;endSize=8;" edge="1" parent="dNxyNK7c78bLwvsdeMH5-11" source="etbVKzwoMp407Bzuv7Fr-1" target="etbVKzwoMp407Bzuv7Fr-41">
          <mxGeometry relative="1" as="geometry" />
        </mxCell>
        <mxCell id="etbVKzwoMp407Bzuv7Fr-1" value="Yay Button" style="ellipse;whiteSpace=wrap;html=1;aspect=fixed;fontSize=16;fillColor=#e1d5e7;strokeColor=#9673a6;" vertex="1" parent="dNxyNK7c78bLwvsdeMH5-11">
          <mxGeometry x="240" y="105" width="100" height="100" as="geometry" />
        </mxCell>
        <mxCell id="etbVKzwoMp407Bzuv7Fr-5" value="" style="group;" vertex="1" connectable="0" parent="dNxyNK7c78bLwvsdeMH5-11">
          <mxGeometry x="470" y="50" width="530" height="395" as="geometry" />
        </mxCell>
        <mxCell id="etbVKzwoMp407Bzuv7Fr-3" value="&lt;font size=&quot;1&quot; style=&quot;&quot;&gt;&lt;b style=&quot;font-size: 19px;&quot;&gt;MASCOTT&lt;/b&gt;&lt;/font&gt;" style="text;html=1;strokeColor=none;fillColor=none;align=center;verticalAlign=middle;whiteSpace=wrap;rounded=0;fontSize=16;" vertex="1" parent="etbVKzwoMp407Bzuv7Fr-5">
          <mxGeometry x="184.45204545454544" width="146.05113636363637" height="47.400000000000006" as="geometry" />
        </mxCell>
        <mxCell id="etbVKzwoMp407Bzuv7Fr-4" value="" style="rounded=1;whiteSpace=wrap;html=1;fontSize=16;" vertex="1" parent="etbVKzwoMp407Bzuv7Fr-5">
          <mxGeometry y="47.400000000000006" width="530.0000000000001" height="347.6" as="geometry" />
        </mxCell>
        <mxCell id="etbVKzwoMp407Bzuv7Fr-12" value="" style="group" vertex="1" connectable="0" parent="etbVKzwoMp407Bzuv7Fr-5">
          <mxGeometry x="30" y="140" width="306.88" height="217.54" as="geometry" />
        </mxCell>
        <mxCell id="etbVKzwoMp407Bzuv7Fr-6" value="" style="rounded=1;whiteSpace=wrap;html=1;fontSize=16;" vertex="1" parent="etbVKzwoMp407Bzuv7Fr-12">
          <mxGeometry y="28.92819148936171" width="306.88" height="188.6118085106383" as="geometry" />
        </mxCell>
        <mxCell id="etbVKzwoMp407Bzuv7Fr-11" value="Overall Frame" style="text;html=1;strokeColor=none;fillColor=none;align=center;verticalAlign=middle;whiteSpace=wrap;rounded=0;fontSize=16;" vertex="1" parent="etbVKzwoMp407Bzuv7Fr-12">
          <mxGeometry x="13.59" width="126.41" height="28.9281914893617" as="geometry" />
        </mxCell>
        <mxCell id="etbVKzwoMp407Bzuv7Fr-20" value="&lt;i style=&quot;font-size: 9px;&quot;&gt;&lt;b&gt;Maybe Sound?&lt;/b&gt;&lt;br&gt;&lt;/i&gt;" style="html=1;whiteSpace=wrap;strokeColor=none;fillColor=#0079D6;labelPosition=center;verticalLabelPosition=middle;verticalAlign=top;align=center;fontSize=12;outlineConnect=0;spacingTop=-6;fontColor=#FFFFFF;sketch=0;shape=mxgraph.sitemap.audio;fillStyle=solid;" vertex="1" parent="etbVKzwoMp407Bzuv7Fr-12">
          <mxGeometry x="200" y="48.9263829787234" width="70" height="57.8563829787234" as="geometry" />
        </mxCell>
        <mxCell id="etbVKzwoMp407Bzuv7Fr-49" style="edgeStyle=none;curved=1;rounded=0;orthogonalLoop=1;jettySize=auto;html=1;exitX=1;exitY=0.5;exitDx=0;exitDy=0;fontSize=12;startSize=8;endSize=8;" edge="1" parent="etbVKzwoMp407Bzuv7Fr-12" source="etbVKzwoMp407Bzuv7Fr-44" target="etbVKzwoMp407Bzuv7Fr-20">
          <mxGeometry relative="1" as="geometry" />
        </mxCell>
        <mxCell id="etbVKzwoMp407Bzuv7Fr-44" value="uC" style="shape=trapezoid;perimeter=trapezoidPerimeter;whiteSpace=wrap;html=1;fixedSize=1;fontSize=16;fillColor=#ffe6cc;strokeColor=#d79b00;" vertex="1" parent="etbVKzwoMp407Bzuv7Fr-12">
          <mxGeometry x="31.800000000000022" y="57.84999999999997" width="90" height="40" as="geometry" />
        </mxCell>
        <mxCell id="etbVKzwoMp407Bzuv7Fr-47" value="" style="group;fillColor=#f5f5f5;fontColor=#333333;strokeColor=#666666;" vertex="1" connectable="0" parent="etbVKzwoMp407Bzuv7Fr-12">
          <mxGeometry x="90.46572475143904" y="125.35549645390074" width="179.53143729286586" height="77.1418439716312" as="geometry" />
        </mxCell>
        <mxCell id="etbVKzwoMp407Bzuv7Fr-15" value="&lt;font style=&quot;font-size: 14px;&quot;&gt;Motor âš™&lt;/font&gt;" style="shape=cylinder3;whiteSpace=wrap;html=1;boundedLbl=1;backgroundOutline=1;size=15;fontSize=16;" vertex="1" parent="etbVKzwoMp407Bzuv7Fr-47">
          <mxGeometry width="49.53427524856096" height="77.1418439716312" as="geometry" />
        </mxCell>
        <mxCell id="etbVKzwoMp407Bzuv7Fr-7" value="&lt;font style=&quot;font-size: 14px;&quot;&gt;Movable Arms&lt;/font&gt;" style="rounded=1;whiteSpace=wrap;html=1;fontSize=16;" vertex="1" parent="etbVKzwoMp407Bzuv7Fr-47">
          <mxGeometry x="81.02427524856097" y="19.285460992907815" width="98.50716204430489" height="38.5709219858156" as="geometry" />
        </mxCell>
        <mxCell id="etbVKzwoMp407Bzuv7Fr-16" value="" style="edgeStyle=none;curved=1;rounded=0;orthogonalLoop=1;jettySize=auto;html=1;fontSize=12;startSize=8;endSize=8;" edge="1" parent="etbVKzwoMp407Bzuv7Fr-47" source="etbVKzwoMp407Bzuv7Fr-15" target="etbVKzwoMp407Bzuv7Fr-7">
          <mxGeometry relative="1" as="geometry" />
        </mxCell>
        <mxCell id="etbVKzwoMp407Bzuv7Fr-48" style="edgeStyle=none;curved=1;rounded=0;orthogonalLoop=1;jettySize=auto;html=1;exitX=0.5;exitY=1;exitDx=0;exitDy=0;entryX=0;entryY=0.5;entryDx=0;entryDy=0;entryPerimeter=0;fontSize=12;startSize=8;endSize=8;" edge="1" parent="etbVKzwoMp407Bzuv7Fr-12" source="etbVKzwoMp407Bzuv7Fr-44" target="etbVKzwoMp407Bzuv7Fr-15">
          <mxGeometry relative="1" as="geometry">
            <Array as="points">
              <mxPoint x="70" y="150" />
            </Array>
          </mxGeometry>
        </mxCell>
        <mxCell id="etbVKzwoMp407Bzuv7Fr-38" value="" style="group" vertex="1" connectable="0" parent="etbVKzwoMp407Bzuv7Fr-5">
          <mxGeometry x="380" y="55" width="105" height="155" as="geometry" />
        </mxCell>
        <mxCell id="etbVKzwoMp407Bzuv7Fr-36" value="" style="triangle;whiteSpace=wrap;html=1;fontSize=16;rotation=-90;fillColor=#dae8fc;strokeColor=#6c8ebf;" vertex="1" parent="etbVKzwoMp407Bzuv7Fr-38">
          <mxGeometry x="20" y="5.961538461538461" width="90" height="95.38461538461537" as="geometry" />
        </mxCell>
        <mxCell id="etbVKzwoMp407Bzuv7Fr-35" value="" style="triangle;whiteSpace=wrap;html=1;fontSize=16;rotation=-90;fillColor=#dae8fc;strokeColor=#6c8ebf;" vertex="1" parent="etbVKzwoMp407Bzuv7Fr-38">
          <mxGeometry x="10" y="5.961538461538461" width="90" height="95.38461538461537" as="geometry" />
        </mxCell>
        <mxCell id="etbVKzwoMp407Bzuv7Fr-28" value="" style="triangle;whiteSpace=wrap;html=1;fontSize=16;rotation=-90;fillColor=#dae8fc;strokeColor=#6c8ebf;" vertex="1" parent="etbVKzwoMp407Bzuv7Fr-38">
          <mxGeometry x="-5" y="5.961538461538461" width="90" height="95.38461538461537" as="geometry" />
        </mxCell>
        <mxCell id="etbVKzwoMp407Bzuv7Fr-29" value="Hats" style="text;html=1;strokeColor=none;fillColor=none;align=center;verticalAlign=middle;whiteSpace=wrap;rounded=0;fontSize=16;" vertex="1" parent="etbVKzwoMp407Bzuv7Fr-38">
          <mxGeometry x="22.5" y="101.34887049659201" width="60" height="35.76923076923077" as="geometry" />
        </mxCell>
        <mxCell id="etbVKzwoMp407Bzuv7Fr-39" style="edgeStyle=none;curved=1;rounded=0;orthogonalLoop=1;jettySize=auto;html=1;entryX=0.5;entryY=0;entryDx=0;entryDy=0;fontSize=12;startSize=8;endSize=8;dashed=1;fillColor=#dae8fc;strokeColor=#6c8ebf;" edge="1" parent="etbVKzwoMp407Bzuv7Fr-5" source="etbVKzwoMp407Bzuv7Fr-28" target="etbVKzwoMp407Bzuv7Fr-6">
          <mxGeometry relative="1" as="geometry">
            <Array as="points">
              <mxPoint x="183" y="85" />
            </Array>
          </mxGeometry>
        </mxCell>
        <mxCell id="etbVKzwoMp407Bzuv7Fr-22" value="" style="shape=umlActor;verticalLabelPosition=bottom;verticalAlign=top;html=1;outlineConnect=0;fontSize=16;" vertex="1" parent="dNxyNK7c78bLwvsdeMH5-11">
          <mxGeometry x="30" y="70" width="70" height="170" as="geometry" />
        </mxCell>
        <mxCell id="etbVKzwoMp407Bzuv7Fr-23" style="edgeStyle=none;curved=1;rounded=0;orthogonalLoop=1;jettySize=auto;html=1;entryX=0;entryY=0.5;entryDx=0;entryDy=0;fontSize=12;startSize=8;endSize=8;" edge="1" parent="dNxyNK7c78bLwvsdeMH5-11" source="etbVKzwoMp407Bzuv7Fr-22" target="etbVKzwoMp407Bzuv7Fr-1">
          <mxGeometry relative="1" as="geometry" />
        </mxCell>
        <mxCell id="etbVKzwoMp407Bzuv7Fr-24" value="&lt;i&gt;&lt;font style=&quot;font-size: 10px;&quot;&gt;SMASH!!&lt;/font&gt;&lt;/i&gt;" style="edgeLabel;html=1;align=center;verticalAlign=middle;resizable=0;points=[];fontSize=16;" vertex="1" connectable="0" parent="etbVKzwoMp407Bzuv7Fr-23">
          <mxGeometry x="-0.2675" y="3" relative="1" as="geometry">
            <mxPoint x="-26" y="18" as="offset" />
          </mxGeometry>
        </mxCell>
        <mxCell id="etbVKzwoMp407Bzuv7Fr-45" style="edgeStyle=none;curved=1;rounded=0;orthogonalLoop=1;jettySize=auto;html=1;exitX=1;exitY=0.5;exitDx=0;exitDy=0;entryX=0;entryY=0.5;entryDx=0;entryDy=0;fontSize=12;startSize=8;endSize=8;dashed=1;strokeWidth=2;fillColor=#ffe6cc;strokeColor=#d79b00;dashPattern=1 1;" edge="1" parent="dNxyNK7c78bLwvsdeMH5-11" source="etbVKzwoMp407Bzuv7Fr-41" target="etbVKzwoMp407Bzuv7Fr-44">
          <mxGeometry relative="1" as="geometry" />
        </mxCell>
        <mxCell id="etbVKzwoMp407Bzuv7Fr-46" value="Wireless í ½í³¶" style="edgeLabel;html=1;align=center;verticalAlign=middle;resizable=0;points=[];fontSize=16;" vertex="1" connectable="0" parent="etbVKzwoMp407Bzuv7Fr-45">
          <mxGeometry x="-0.4552" y="3" relative="1" as="geometry">
            <mxPoint x="-5" y="-7" as="offset" />
          </mxGeometry>
        </mxCell>
        <mxCell id="etbVKzwoMp407Bzuv7Fr-41" value="uC" style="shape=trapezoid;perimeter=trapezoidPerimeter;whiteSpace=wrap;html=1;fixedSize=1;fontSize=16;fillColor=#ffe6cc;strokeColor=#d79b00;" vertex="1" parent="dNxyNK7c78bLwvsdeMH5-11">
          <mxGeometry x="245" y="240" width="90" height="40" as="geometry" />
        </mxCell>
      </root>
    </mxGraphModel>
  </diagram>
</mxfile>
